<svg xmlns="http://www.w3.org/2000/svg"> <symbol id="princelogo" viewBox="-240 320.4 130.2 152.6"><title>TAFKAP</title>
<path d="M-160.7 356.5c0-9.4-8.8-15-15.9-15 -9.1 0-15.3 7.7-15.3 16.1 0 7.8 6.9 15.1 15.4 15.1C-168.1 372.8-160.7 365.8-160.7 356.5zM-203.5 356.6c0-18.7 15.3-26.7 27.1-26.7 15 0 27.1 11.9 27.1 26.6 0 10.9-3.9 18.6-11.2 22.8 7.3-0.5 14.8-1.5 21.4-4.1 6.9-2.8 13-7.3 18-11.8 -1.1 5.9-3.7 13.4-3.8 20.6 -0.1 7.4 1.5 13.4 5 18.9 1 1.7-0.7 1.5-1.2 0.6C-134.3 386.4-152.8 387.6-170.7 387.6v20.7h5.3l3.9-4v17.8l-4.6-4.1h-4.6v24.9l7.9-5.4L-175.9 464.4l-13.6-27.1 8 5.7v-24.9h-5.3l-4.3 4.1v-17.8l4 4h5.7v-20.7c-12.3 0.2-24.2 2.1-32.9 6 -7.1 3.2-12.7 7.6-12.8 13.6 -0.1 5.2 1.3 9.7 7.4 9.7 5.9 0 7.4-2.8 7.4-5 0-2.1-1.5-4-3.2-4.5 5.2 7.6-8.1 10.8-8.7 3 -0.4-5.5 4.6-6.8 8.5-6.8 3.9 0 7.4 4.3 7.8 8.7 0.4 3.7-3.2 8.9-11.7 8.9C-229.9 421.2-232.3 414.3-232.3 407.3c0-9.1 7.8-16.1 16.8-20.7 8.4-4.3 17.7-6.7 24.6-7.1C-198.3 375.4-203.5 367.8-203.5 356.6z"/>
</symbol></svg>